# xmcd CD database file
#
# Track frame offsets:
#	150
#	5733
#	6796
#	12640
#	23757
#	37290
#	48537
#	59448
#	67857
#	78321
#	86947
#	96252
#	109005
#	115243
#	119621
#	132882
#	145001
#	154620
#	163955
#	172375
#	178164
#	187926
#	195532
#	202771
#	210767
#	226224
#	239981
#	257555
#
# Disc length: 3548 seconds
#
# Revision: 1
# Processed by: cddbd v1.5PL3 Copyright (c) Steve Scherf et al.
# Submitted via: CDex 1.51
#
DISCID=8c0dda1c
DTITLE=Leaf - 痕
DYEAR=1996
DGENRE=Game
TTITLE0=Don't Play!!!
TTITLE1=Leaf Logo
TTITLE2=寝覚月
TTITLE3=ためいき
TTITLE4=夏の追憶
TTITLE5=千鶴
TTITLE6=梓
TTITLE7=楓
TTITLE8=初音
TTITLE9=陽のあたる場所
TTITLE10=長瀬刑事
TTITLE11=もう一人の自分
TTITLE12=迷妄
TTITLE13=見えない月
TTITLE14=光の粒
TTITLE15=夜の風
TTITLE16=UKIUKI気分
TTITLE17=スト3
TTITLE18=鬼の伝説
TTITLE19=見えざる敵
TTITLE20=鬼神楽
TTITLE21=つつまれて
TTITLE22=醒めない夢
TTITLE23=やすらぎ
TTITLE24=それは…現実
TTITLE25=終わりそして始まり
TTITLE26=まだ癒えぬ痕
TTITLE27=Bonus Track
EXTD=YEAR: 1996
EXTT0=
EXTT1=
EXTT2=
EXTT3=
EXTT4=
EXTT5=
EXTT6=
EXTT7=
EXTT8=
EXTT9=
EXTT10=
EXTT11=
EXTT12=
EXTT13=
EXTT14=
EXTT15=
EXTT16=
EXTT17=
EXTT18=
EXTT19=
EXTT20=
EXTT21=
EXTT22=
EXTT23=
EXTT24=
EXTT25=
EXTT26=
EXTT27=
PLAYORDER=
